<svg width="20" height="20" viewBox="0 0 20 20" fill="none" xmlns="http://www.w3.org/2000/svg">
<path d="M10.002 11.6692V9.16873M10.002 9.16873V6.66823M10.002 9.16873H7.50149M10.002 9.16873H12.5025M5.93749 15.5877L4.66726 16.6038C3.97365 17.1587 3.62667 17.4363 3.3348 17.4366C3.08097 17.4369 2.84093 17.3215 2.68257 17.1231C2.50049 16.895 2.50049 16.4509 2.50049 15.5627V6.00159C2.50049 5.06798 2.50049 4.60083 2.68218 4.24424C2.842 3.93057 3.09683 3.67574 3.4105 3.51592C3.76709 3.33423 4.23424 3.33423 5.16785 3.33423H14.8365C15.7701 3.33423 16.2366 3.33423 16.5932 3.51592C16.9069 3.67574 17.1622 3.93057 17.322 4.24424C17.5035 4.60048 17.5035 5.06707 17.5035 5.99885V12.339C17.5035 13.2708 17.5035 13.7367 17.322 14.0929C17.1622 14.4066 16.907 14.6619 16.5933 14.8217C16.2371 15.0032 15.7711 15.0032 14.8393 15.0032H7.60364C7.25688 15.0032 7.08331 15.0032 6.91747 15.0373C6.77033 15.0675 6.62811 15.1172 6.49435 15.1856C6.34416 15.2623 6.20926 15.3702 5.94053 15.5852L5.93749 15.5877Z" stroke="#374150" stroke-width="1.6" stroke-linecap="round" stroke-linejoin="round"/>
</svg>
