<svg width="20" height="20" viewBox="0 0 20 20" fill="none" xmlns="http://www.w3.org/2000/svg">
<path d="M2.50049 10.0022C2.50049 14.1452 5.85902 17.5037 10.002 17.5037C14.145 17.5037 17.5035 14.1452 17.5035 10.0022C17.5035 5.85927 14.145 2.50073 10.002 2.50073C5.85902 2.50073 2.50049 5.85927 2.50049 10.0022Z" stroke="#374150" stroke-width="1.6" stroke-linecap="round" stroke-linejoin="round"/>
<path d="M12.5025 11.1688V8.83501C12.5025 8.3682 12.5022 8.13503 12.4113 7.95674C12.3314 7.79991 12.2044 7.67249 12.0476 7.59258C11.8693 7.50173 11.6354 7.50173 11.1686 7.50173H8.83476C8.36796 7.50173 8.13479 7.50173 7.95649 7.59258C7.79966 7.67249 7.67225 7.79991 7.59233 7.95674C7.50149 8.13503 7.50149 8.3682 7.50149 8.83501V11.1688C7.50149 11.6356 7.50149 11.8695 7.59233 12.0478C7.67225 12.2046 7.79966 12.3317 7.95649 12.4116C8.13479 12.5024 8.36796 12.5027 8.83476 12.5027H11.1686C11.6354 12.5027 11.8693 12.5024 12.0476 12.4116C12.2044 12.3317 12.3314 12.2046 12.4113 12.0478C12.5022 11.8695 12.5025 11.6356 12.5025 11.1688Z" stroke="#374150" stroke-width="1.6" stroke-linecap="round" stroke-linejoin="round"/>
</svg>
